<?xml version="1.0" encoding="UTF-8"?>
<svg id="Layer_1" data-name="Layer 1" xmlns="http://www.w3.org/2000/svg" viewBox="0 0 799.48 348.15">
  <defs>
    <style>
      .cls-1 {
        fill: #faf9f6;
      }

      .cls-1, .cls-2 {
        stroke: #69f;
        stroke-miterlimit: 10;
        stroke-width: 2px;
      }

      .cls-2 {
        fill: #ff2a00;
      }
    </style>
  </defs>
  <g>
    <path class="cls-1" d="M52.43,148.84H2.38l2.54-13.72h14.22L95.86,1h23.12l24.89,134.12h11.94l-2.79,13.72h-71.13l2.54-13.72h16.77l-4.57-30.23h-44.45l-16.77,30.23h19.56l-2.54,13.72ZM59.28,91.94h35.56l-7.62-50.3-27.94,50.3Z"/>
    <path class="cls-1" d="M160.89,148.84l2.54-13.72h14.48l23.62-120.41h-14.48l2.54-13.72h69.86c30.74,0,53.6,13.21,53.6,36.07s-18.54,36.33-42.42,42.42l26.16,55.63h17.02l-2.79,13.72h-52.07l-24.64-66.05h-6.1l-10.16,52.33h16.77l-2.54,13.72h-71.38ZM241.67,14.72l-10.92,56.39h5.84c20.07,0,36.58-11.18,36.58-35.56,0-16.51-12.19-20.83-25.91-20.83h-5.59Z"/>
    <path class="cls-1" d="M338.2,148.84l2.54-13.72h19.81l23.62-120.41h-29.97l-10.67,37.09h-14.73l9.91-50.8h136.15l-9.65,50.8h-14.73l3.56-37.09h-29.72l-23.62,120.41h19.81l-2.54,13.72h-79.76Z"/>
    <path class="cls-1" d="M456.32,148.84l2.54-13.72h14.48l23.62-120.41h-14.22l2.54-13.72h117.1l-8.89,45.72h-13.97l1.78-32.01h-43.95l-10.41,52.07h21.34l3.3-17.27h14.22l-9.65,48.52h-14.22l3.3-17.53h-20.83l-10.92,54.61h48.52l10.42-32.26h14.22l-8.89,45.98h-121.42Z"/>
  </g>
  <polygon class="cls-1" points="797.1 347.15 197.1 347.15 2.38 148.84 602.38 148.84 797.1 347.15"/>
  <g>
    <path class="cls-2" d="M115.96,264.36l1.36-7.35h7.76l12.66-64.52h-7.76l1.36-7.35h37.44c16.47,0,28.72,7.08,28.72,19.33s-9.94,19.47-22.73,22.73l14.02,29.81h9.12l-1.5,7.35h-27.91l-13.2-35.39h-3.27l-5.44,28.04h8.98l-1.36,7.35h-38.25ZM159.25,192.49l-5.85,30.22h3.13c10.75,0,19.6-5.99,19.6-19.06,0-8.85-6.53-11.16-13.88-11.16h-3Z"/>
    <path class="cls-2" d="M199.26,264.36l1.36-7.35h7.76l12.66-64.52h-7.62l1.36-7.35h62.75l-4.76,24.5h-7.49l.95-17.15h-23.55l-5.58,27.91h11.44l1.77-9.26h7.62l-5.17,26h-7.62l1.77-9.39h-11.16l-5.85,29.27h26l5.58-17.29h7.62l-4.76,24.64h-65.07Z"/>
    <path class="cls-2" d="M302.71,258.24c8.03,0,13.34-4.76,13.34-11.98,0-4.63-3.13-7.49-7.76-10.75l-10.21-6.67c-8.03-5.31-11.98-11.03-11.98-18.92,0-14.7,12.12-26.14,29-26.14,7.62,0,13.34,3.13,17.02,7.08l2.04-5.99h6.26l-4.22,24.37h-6.13l-.41-3.95c-.95-8.71-6.13-14.56-14.16-14.56-7.08,0-11.3,4.63-11.3,10.07,0,4.9,3.68,7.62,7.49,10.35l10.62,6.94c7.9,5.31,12.66,11.44,12.66,19.6,0,15.66-13.88,28.04-31.58,28.04-9.53,0-16.34-4.08-19.74-8.44l-2.45,7.08h-6.67l5.31-27.91h6.26l.54,6.13c.82,9.8,7.49,15.66,16.06,15.66Z"/>
    <path class="cls-2" d="M344.22,232.78c0-24.91,21.92-49.01,44.24-49.01,19.19,0,30.9,13.75,30.9,32.94,0,24.78-21.92,49.01-44.24,49.01-19.19,0-30.9-13.89-30.9-32.94ZM397.45,207.87c0-10.48-2.86-17.15-8.85-17.15-11.84,0-22.46,27.63-22.46,50.91,0,10.35,2.86,17.15,8.71,17.15,11.98,0,22.6-27.77,22.6-50.91Z"/>
    <path class="cls-2" d="M417.04,264.36l1.36-7.35h7.76l12.66-64.52h-7.76l1.36-7.35h37.16l-1.36,7.35h-7.9l-12.66,64.52h23.28l6.13-19.47h7.62l-5.17,26.82h-62.48Z"/>
    <path class="cls-2" d="M555.34,233.46c-3.68,19.06-15.65,32.26-35.12,32.26-17.29,0-27.36-9.53-27.36-25.05,0-2.72.27-5.58.82-8.44l7.9-39.75h-8.03l1.36-7.35h37.3l-1.36,7.35h-7.9l-7.62,38.93c-.68,3.54-.95,6.67-.95,9.39,0,9.53,3.95,14.43,12.12,14.43,10.21,0,17.56-6.81,20.83-23.14l7.76-39.61h-10.75l1.36-7.35h27.09l-1.5,7.35h-8.03l-7.9,40.97Z"/>
    <path class="cls-2" d="M577.52,264.36l1.36-7.35h10.62l12.66-64.52h-16.06l-5.72,19.87h-7.9l5.31-27.22h72.96l-5.17,27.22h-7.9l1.91-19.87h-15.93l-12.66,64.52h10.62l-1.36,7.35h-42.74Z"/>
    <path class="cls-2" d="M660.55,264.36h-26.82l1.36-7.35h7.62l41.11-71.87h12.39l13.34,71.87h6.4l-1.5,7.35h-38.12l1.36-7.35h8.98l-2.45-16.2h-23.82l-8.98,16.2h10.48l-1.36,7.35ZM664.23,233.87h19.06l-4.08-26.95-14.97,26.95Z"/>
  </g>
</svg>