<?xml version="1.0" encoding="UTF-8"?>
<svg id="Layer_1" data-name="Layer 1" xmlns="http://www.w3.org/2000/svg" viewBox="0 0 2461.26 228">
  <defs>
    <style>
      .cls-1 {
        stroke: #69f;
        stroke-linejoin: round;
        stroke-width: 8px;
      }

      .cls-1, .cls-2 {
        fill: #ff2a00;
      }

      .cls-3 {
        fill: none;
      }
    </style>
  </defs>
  <g>
    <path class="cls-1" d="M71.7,214H4l3.44-18.56h19.24L130.46,14h31.27l33.68,181.44h16.15l-3.78,18.56h-96.22l3.44-18.56h22.68l-6.19-40.89h-60.14l-22.68,40.89h26.46l-3.44,18.56ZM80.98,137.02h48.11l-10.31-68.04-37.8,68.04Z"/>
    <path class="cls-1" d="M218.43,214l3.44-18.56h19.59l31.96-162.89h-19.59l3.44-18.56h94.5c41.58,0,72.51,17.87,72.51,48.8s-25.09,49.14-57.39,57.39l35.4,75.26h23.02l-3.78,18.56h-70.45l-33.33-89.35h-8.25l-13.75,70.79h22.68l-3.44,18.56h-96.56ZM327.71,32.56l-14.78,76.29h7.9c27.15,0,49.49-15.12,49.49-48.11,0-22.34-16.5-28.18-35.05-28.18h-7.56Z"/>
    <path class="cls-1" d="M458.29,214l3.44-18.56h26.8l31.96-162.89h-40.55l-14.43,50.17h-19.93l13.4-68.73h184.19l-13.06,68.73h-19.93l4.81-50.17h-40.21l-31.96,162.89h26.8l-3.44,18.56h-107.91Z"/>
    <path class="cls-1" d="M618.08,214l3.44-18.56h19.59l31.96-162.89h-19.24l3.44-18.56h158.42l-12.03,61.86h-18.9l2.41-43.3h-59.45l-14.09,70.45h28.87l4.47-23.37h19.24l-13.06,65.64h-19.24l4.47-23.71h-28.18l-14.78,73.88h65.64l14.09-43.64h19.24l-12.03,62.2h-164.26Z"/>
  </g>
  <path class="cls-2" d="M1066.45,62.5c0,31.9-21.6,46.52-47.84,46.52h-7.64l14.28-73.76h7.31c17.94,0,33.89,5.65,33.89,27.24Z"/>
  <path class="cls-1" d="M1585.05,30.94c-28.91,0-54.82,67.44-54.82,124.26,0,25.25,6.98,41.86,21.26,41.86,29.24,0,55.15-67.78,55.15-124.26,0-25.58-6.98-41.86-21.59-41.86ZM1585.05,30.94c-28.91,0-54.82,67.44-54.82,124.26,0,25.25,6.98,41.86,21.26,41.86,29.24,0,55.15-67.78,55.15-124.26,0-25.58-6.98-41.86-21.59-41.86ZM1585.05,30.94c-28.91,0-54.82,67.44-54.82,124.26,0,25.25,6.98,41.86,21.26,41.86,29.24,0,55.15-67.78,55.15-124.26,0-25.58-6.98-41.86-21.59-41.86ZM1585.05,30.94c-28.91,0-54.82,67.44-54.82,124.26,0,25.25,6.98,41.86,21.26,41.86,29.24,0,55.15-67.78,55.15-124.26,0-25.58-6.98-41.86-21.59-41.86ZM846.38,4v220h1610.88V4H846.38ZM1115.95,210.68h-68.11l-32.22-86.38h-7.98l-13.29,68.44h21.93l-3.32,17.94h-93.36l3.33-17.94h18.93l30.9-157.48h-18.94l3.33-17.94h91.36c40.2,0,70.1,17.28,70.1,47.18s-24.25,47.51-55.48,55.48l34.21,72.76h22.26l-3.65,17.94ZM1228.91,35.26l-13.63,68.11h27.91l4.32-22.59h18.6l-12.62,63.45h-18.61l4.32-22.92h-27.24l-14.29,71.43h63.46l13.62-42.2h18.61l-11.63,60.14h-158.81l3.33-17.94h18.93l30.9-157.48h-18.6l3.32-17.94h153.16l-11.63,59.8h-18.28l2.33-41.86h-57.47ZM1457.14,76.13h-14.95l-1-9.64c-2.32-21.26-14.95-35.55-34.55-35.55-17.27,0-27.57,11.3-27.57,24.59,0,11.96,8.97,18.6,18.27,25.25l25.91,16.94c19.27,12.96,30.9,27.91,30.9,47.84,0,38.21-33.89,68.44-77.08,68.44-23.25,0-39.86-9.97-48.17-20.6l-5.98,17.28h-16.28l12.96-68.11h15.28l1.33,14.95c1.99,23.92,18.27,38.21,39.2,38.21,19.6,0,32.56-11.63,32.56-29.24,0-11.29-7.64-18.27-18.94-26.24l-24.91-16.28c-19.6-12.96-29.24-26.91-29.24-46.18,0-35.88,29.57-63.79,70.77-63.79,18.6,0,32.55,7.64,41.52,17.28l4.99-14.62h15.28l-10.3,59.47ZM1552.16,214c-46.85,0-75.42-33.89-75.42-80.4,0-60.8,53.49-119.6,107.97-119.6,46.85,0,75.42,33.55,75.42,80.4,0,60.46-53.49,119.6-107.97,119.6ZM1806.97,210.68h-152.49l3.32-17.94h18.94l30.89-157.48h-18.93l3.32-17.94h90.7l-3.33,17.94h-19.26l-30.9,157.48h56.81l14.95-47.51h18.6l-12.62,65.45ZM2011.29,35.26l-19.27,100c-8.97,46.51-38.21,78.74-85.72,78.74-42.19,0-66.78-23.26-66.78-61.13,0-6.64.67-13.62,2-20.6l19.27-97.01h-19.6l3.32-17.94h91.03l-3.32,17.94h-19.27l-18.61,95.02c-1.66,8.64-2.32,16.28-2.32,22.92,0,23.26,9.63,35.22,29.56,35.22,24.92,0,42.86-16.61,50.84-56.48l18.93-96.68h-26.24l3.32-17.94h66.11l-3.65,17.94h-19.6ZM2153.8,192.74l-3.32,17.94h-104.32l3.32-17.94h25.92l30.9-157.48h-39.21l-13.95,48.51h-19.27l12.96-66.45h178.07l-12.63,66.45h-19.26l4.65-48.51h-38.87l-30.9,157.48h25.91ZM2380.38,210.68h-93.02l3.32-17.94h21.93l-5.98-39.54h-58.14l-21.93,39.54h25.58l-3.32,17.94h-65.45l3.32-17.94h18.61l100.33-175.42h30.23l32.56,175.42h15.62l-3.66,17.94ZM2257.79,136.26h46.51l-9.97-65.78-36.54,65.78ZM1585.05,30.94c-28.91,0-54.82,67.44-54.82,124.26,0,25.25,6.98,41.86,21.26,41.86,29.24,0,55.15-67.78,55.15-124.26,0-25.58-6.98-41.86-21.59-41.86ZM1585.05,30.94c-28.91,0-54.82,67.44-54.82,124.26,0,25.25,6.98,41.86,21.26,41.86,29.24,0,55.15-67.78,55.15-124.26,0-25.58-6.98-41.86-21.59-41.86ZM1585.05,30.94c-28.91,0-54.82,67.44-54.82,124.26,0,25.25,6.98,41.86,21.26,41.86,29.24,0,55.15-67.78,55.15-124.26,0-25.58-6.98-41.86-21.59-41.86ZM1585.05,30.94c-28.91,0-54.82,67.44-54.82,124.26,0,25.25,6.98,41.86,21.26,41.86,29.24,0,55.15-67.78,55.15-124.26,0-25.58-6.98-41.86-21.59-41.86ZM1585.05,30.94c-28.91,0-54.82,67.44-54.82,124.26,0,25.25,6.98,41.86,21.26,41.86,29.24,0,55.15-67.78,55.15-124.26,0-25.58-6.98-41.86-21.59-41.86Z"/>
  <g>
    <path class="cls-3" d="M919.61,210.68l3.32-17.94h18.94l30.9-157.48h-18.94l3.32-17.94h91.36c40.2,0,70.1,17.28,70.1,47.18s-24.25,47.51-55.48,55.48l34.22,72.76h22.26l-3.65,17.94h-68.11l-32.23-86.38h-7.97l-13.29,68.44h21.93l-3.32,17.94h-93.36ZM1025.26,35.26l-14.29,73.75h7.64c26.25,0,47.84-14.62,47.84-46.51,0-21.6-15.95-27.24-33.89-27.24h-7.31Z"/>
    <path class="cls-3" d="M1122.93,210.68l3.32-17.94h18.94l30.9-157.48h-18.6l3.32-17.94h153.16l-11.63,59.8h-18.27l2.33-41.86h-57.48l-13.62,68.11h27.91l4.32-22.59h18.6l-12.62,63.46h-18.6l4.32-22.92h-27.24l-14.29,71.43h63.45l13.62-42.19h18.6l-11.63,60.13h-158.8Z"/>
    <path class="cls-3" d="M1375.42,195.73c19.6,0,32.56-11.63,32.56-29.24,0-11.3-7.64-18.27-18.94-26.25l-24.92-16.28c-19.6-12.96-29.24-26.91-29.24-46.18,0-35.88,29.57-63.79,70.76-63.79,18.6,0,32.56,7.64,41.53,17.28l4.98-14.62h15.28l-10.3,59.47h-14.95l-1-9.63c-2.33-21.26-14.95-35.55-34.55-35.55-17.28,0-27.57,11.3-27.57,24.58,0,11.96,8.97,18.61,18.27,25.25l25.91,16.94c19.27,12.96,30.9,27.91,30.9,47.84,0,38.21-33.89,68.44-77.08,68.44-23.26,0-39.87-9.97-48.17-20.6l-5.98,17.28h-16.28l12.96-68.11h15.28l1.33,14.95c1.99,23.92,18.27,38.21,39.2,38.21Z"/>
    <path class="cls-3" d="M1476.74,133.6c0-60.8,53.49-119.6,107.97-119.6,46.84,0,75.42,33.56,75.42,80.4,0,60.47-53.49,119.6-107.97,119.6-46.84,0-75.42-33.89-75.42-80.4ZM1606.64,72.8c0-25.58-6.98-41.86-21.6-41.86-28.9,0-54.82,67.44-54.82,124.25,0,25.25,6.98,41.86,21.26,41.86,29.24,0,55.15-67.77,55.15-124.25Z"/>
    <path class="cls-3" d="M1654.48,210.68l3.32-17.94h18.94l30.9-157.48h-18.94l3.32-17.94h90.7l-3.32,17.94h-19.27l-30.9,157.48h56.81l14.95-47.51h18.6l-12.62,65.45h-152.49Z"/>
    <path class="cls-3" d="M1992.02,135.26c-8.97,46.51-38.21,78.74-85.71,78.74-42.19,0-66.78-23.26-66.78-61.13,0-6.64.66-13.62,1.99-20.6l19.27-97.01h-19.6l3.32-17.94h91.03l-3.32,17.94h-19.27l-18.61,95.02c-1.66,8.64-2.33,16.28-2.33,22.92,0,23.26,9.63,35.22,29.57,35.22,24.92,0,42.86-16.61,50.83-56.48l18.94-96.68h-26.25l3.32-17.94h66.11l-3.65,17.94h-19.6l-19.27,100Z"/>
    <path class="cls-3" d="M2046.17,210.68l3.32-17.94h25.91l30.9-157.48h-39.2l-13.95,48.51h-19.27l12.96-66.45h178.07l-12.62,66.45h-19.27l4.65-48.51h-38.87l-30.9,157.48h25.91l-3.32,17.94h-104.32Z"/>
    <path class="cls-3" d="M2248.82,210.68h-65.45l3.32-17.94h18.6l100.33-175.42h30.23l32.56,175.42h15.61l-3.65,17.94h-93.02l3.32-17.94h21.93l-5.98-39.53h-58.14l-21.93,39.53h25.58l-3.32,17.94ZM2257.79,136.26h46.51l-9.97-65.78-36.54,65.78Z"/>
  </g>
</svg>