<?xml version="1.0" encoding="UTF-8"?>
<svg id="Layer_1" data-name="Layer 1" xmlns="http://www.w3.org/2000/svg" viewBox="0 0 800 353.86">
  <defs>
    <style>
      .cls-1 {
        fill: #ff2a00;
      }

      .cls-2 {
        fill: #faf9f6;
      }

      .cls-3 {
        fill: #69f;
      }
    </style>
  </defs>
  <g>
    <g>
      <path class="cls-2" d="M83.51,153.84c-.59,0-1.16-.26-1.54-.72-.38-.46-.54-1.06-.43-1.64l2.54-13.72c.18-.95,1-1.64,1.97-1.64h14.44l-3.97-26.23h-41.56l-14.55,26.23h16.16c.59,0,1.16.26,1.54.72.38.46.54,1.06.43,1.64l-2.54,13.72c-.18.95-1,1.64-1.97,1.64H4c-.59,0-1.16-.26-1.54-.72-.38-.46-.54-1.06-.43-1.64l2.54-13.72c.18-.95,1-1.64,1.97-1.64h13.06L95.74,3.01c.36-.62,1.02-1.01,1.74-1.01h23.12c.96,0,1.79.69,1.97,1.64l24.59,132.49h10.28c.6,0,1.17.27,1.55.73.38.46.53,1.08.41,1.66l-2.79,13.72c-.19.93-1.01,1.6-1.96,1.6h-71.13ZM94.14,92.94l-6.39-42.2-23.44,42.2h29.84Z"/>
      <path class="cls-3" d="M120.6,4l24.89,134.12h11.94l-2.79,13.72h-71.13l2.54-13.72h16.77l-4.57-30.23h-44.45l-16.77,30.23h19.56l-2.54,13.72H4l2.54-13.72h14.22L97.48,4h23.12M60.9,94.94h35.56l-7.62-50.3-27.94,50.3M157.43,138.12h0M120.6,0h-23.12c-1.43,0-2.76.77-3.47,2.01L18.45,134.12H6.54c-1.93,0-3.58,1.38-3.93,3.27L.07,151.11c-.22,1.17.1,2.37.86,3.29.76.91,1.89,1.44,3.08,1.44h50.04c1.93,0,3.58-1.38,3.93-3.27l2.54-13.72c.22-1.17-.1-2.37-.86-3.29-.76-.91-1.89-1.44-3.08-1.44h-12.77l12.33-22.23h38.66l3.36,22.23h-12.12c-1.93,0-3.58,1.38-3.93,3.27l-2.54,13.72c-.22,1.17.1,2.37.86,3.29.76.91,1.89,1.44,3.08,1.44h71.13c1.9,0,3.54-1.34,3.92-3.2l2.76-13.56c.08-.31.11-.63.11-.96,0-2.21-1.79-4-4-4h-8.62L124.53,3.27c-.35-1.9-2.01-3.27-3.93-3.27h0ZM67.7,90.94l18.95-34.1,5.17,34.1h-24.11Z"/>
    </g>
    <g>
      <path class="cls-2" d="M260.56,153.84c-.83,0-1.58-.52-1.87-1.3l-24.15-64.74h-3.06l-9.38,48.33h14.34c.59,0,1.16.26,1.54.72.38.46.54,1.06.43,1.64l-2.54,13.72c-.18.95-1,1.64-1.97,1.64h-71.38c-.59,0-1.16-.26-1.54-.72-.38-.46-.54-1.06-.43-1.64l2.54-13.72c.18-.95,1-1.64,1.97-1.64h12.83l22.84-116.41h-12.05c-.59,0-1.16-.26-1.54-.72-.38-.46-.54-1.06-.43-1.64l2.54-13.72c.18-.95,1-1.64,1.97-1.64h69.86c15.85,0,29.48,3.38,39.41,9.78,10.59,6.83,16.19,16.61,16.19,28.29,0,20.16-15.5,36.38-41.59,43.73l24.61,52.32h15.75c.6,0,1.17.27,1.55.73.38.46.53,1.08.41,1.66l-2.79,13.72c-.19.93-1.01,1.6-1.96,1.6h-52.07ZM238.21,72.11c21.65,0,34.58-12.55,34.58-33.56,0-12.67-7.82-18.83-23.91-18.83h-3.94l-10.15,52.39h3.42Z"/>
      <path class="cls-3" d="M261.07,4c30.74,0,53.6,13.21,53.6,36.07s-18.54,36.33-42.42,42.42l26.16,55.63h17.02l-2.79,13.72h-52.07l-24.64-66.05h-6.1l-10.16,52.33h16.77l-2.54,13.72h-71.38l2.54-13.72h14.48l23.62-120.41h-14.48l2.54-13.72h69.86M232.37,74.11h5.84c20.07,0,36.58-11.18,36.58-35.56,0-16.51-12.19-20.83-25.91-20.83h-5.59l-10.92,56.39M315.43,138.12h0M261.07,0h-69.86c-1.93,0-3.58,1.38-3.93,3.27l-2.54,13.72c-.22,1.17.1,2.37.86,3.29.76.91,1.89,1.44,3.08,1.44h9.62l-22.05,112.41h-11.19c-1.93,0-3.58,1.38-3.93,3.27l-2.54,13.72c-.22,1.17.1,2.37.86,3.29.76.91,1.89,1.44,3.08,1.44h71.38c1.93,0,3.58-1.38,3.93-3.27l2.54-13.72c.22-1.17-.1-2.37-.86-3.29-.76-.91-1.89-1.44-3.08-1.44h-11.91l8.61-44.33h.02l23.67,63.44c.58,1.56,2.08,2.6,3.75,2.6h52.07c1.9,0,3.54-1.34,3.92-3.2l2.76-13.56c.08-.31.11-.63.11-.96,0-2.21-1.79-4-4-4h-14.49l-23.07-49.06c25.65-7.9,40.79-24.47,40.79-44.99,0-12.39-5.92-22.76-17.11-29.97-10.25-6.61-24.25-10.1-40.49-10.1h0ZM246.59,21.72h2.29c19.42,0,21.91,8.99,21.91,16.83,0,19.76-12.18,31.56-32.58,31.56h-.99l9.37-48.39h0Z"/>
    </g>
    <g>
      <path class="cls-2" d="M339.82,153.84c-.59,0-1.16-.26-1.54-.72-.38-.46-.54-1.06-.43-1.64l2.54-13.72c.18-.95,1-1.64,1.97-1.64h18.17l22.84-116.41h-26.04l-10.25,35.64c-.25.86-1.03,1.45-1.92,1.45h-14.73c-.6,0-1.16-.27-1.54-.73-.38-.46-.53-1.07-.42-1.65l9.91-50.8c.18-.94,1.01-1.62,1.96-1.62h136.15c.6,0,1.16.27,1.54.72.38.46.54,1.06.42,1.65l-9.65,50.8c-.18.94-1,1.63-1.96,1.63h-14.73c-.56,0-1.1-.24-1.48-.65-.38-.42-.56-.98-.51-1.54l3.35-34.9h-25.87l-22.84,116.41h17.38c.59,0,1.16.26,1.54.72.38.46.54,1.06.43,1.64l-2.54,13.72c-.18.95-1,1.64-1.97,1.64h-79.76Z"/>
      <path class="cls-3" d="M476.48,4h0M476.48,4l-9.65,50.8h-14.73l3.56-37.09h-29.72l-23.62,120.41h19.81l-2.54,13.72h-79.76l2.54-13.72h19.81l23.62-120.41h-29.97l-10.67,37.09h-14.73l9.91-50.8h136.15M476.49,0h-136.16c-1.91,0-3.56,1.36-3.93,3.23l-9.91,50.8c-.23,1.17.08,2.39.84,3.31.76.92,1.89,1.46,3.09,1.46h14.73c1.78,0,3.35-1.18,3.84-2.89l9.84-34.19h22.1l-22.05,112.41h-16.52c-1.93,0-3.58,1.38-3.93,3.27l-2.54,13.72c-.22,1.17.1,2.37.86,3.29s1.89,1.44,3.08,1.44h79.76c1.93,0,3.58-1.38,3.93-3.27l2.54-13.72c.22-1.17-.1-2.37-.86-3.29-.76-.91-1.89-1.44-3.08-1.44h-14.95l22.05-112.41h22.03l-3.14,32.7c-.11,1.12.26,2.24,1.02,3.07.76.83,1.83,1.31,2.96,1.31h14.73c1.92,0,3.57-1.37,3.93-3.25l9.62-50.65c.07-.29.1-.59.1-.9,0-2.21-1.79-4-4-4h0ZM476.48,8h0,0Z"/>
    </g>
    <g>
      <path class="cls-2" d="M457.94,153.84c-.59,0-1.16-.26-1.54-.72-.38-.46-.54-1.06-.43-1.64l2.54-13.72c.18-.95,1-1.64,1.97-1.64h12.83l22.84-116.41h-11.79c-.59,0-1.16-.26-1.54-.72-.38-.46-.54-1.06-.43-1.64l2.54-13.72c.18-.95,1-1.64,1.97-1.64h117.1c.6,0,1.16.27,1.54.73s.53,1.07.42,1.65l-8.89,45.72c-.18.94-1.01,1.62-1.96,1.62h-13.97c-.55,0-1.08-.23-1.45-.63s-.57-.94-.54-1.49l1.66-29.9h-40.19l-9.61,48.07h17.24l2.99-15.65c.18-.94,1-1.62,1.96-1.62h14.23c.6,0,1.17.27,1.55.73s.53,1.07.42,1.66l-9.65,48.52c-.19.94-1.01,1.61-1.96,1.61h-14.22c-.6,0-1.16-.27-1.54-.72-.38-.46-.54-1.06-.43-1.65l2.86-15.16h-16.78l-10.12,50.61h44.62l9.97-30.88c.27-.83,1.04-1.39,1.9-1.39h14.22c.6,0,1.16.27,1.54.73s.53,1.07.42,1.65l-8.89,45.98c-.18.94-1.01,1.62-1.96,1.62h-121.42Z"/>
      <path class="cls-3" d="M604,4h0M604,4l-8.89,45.72h-13.97l1.78-32.01h-43.95l-10.41,52.07h21.34l3.3-17.27h14.22l-9.65,48.52h-14.22l3.3-17.53h-20.83l-10.92,54.61h48.52l10.42-32.26h14.22l-8.89,45.98h-121.42l2.54-13.72h14.48l23.62-120.41h-14.22l2.54-13.72h117.1M567.42,52.52h0M604.01,0h-117.11c-1.93,0-3.58,1.38-3.93,3.27l-2.54,13.72c-.22,1.17.1,2.37.86,3.29.76.91,1.89,1.44,3.08,1.44h9.36l-22.05,112.41h-11.19c-1.93,0-3.58,1.38-3.93,3.27l-2.54,13.72c-.22,1.17.1,2.37.86,3.29.76.91,1.89,1.44,3.08,1.44h121.42c1.92,0,3.56-1.36,3.93-3.24l8.89-45.98c.23-1.17-.08-2.38-.84-3.31-.76-.92-1.89-1.45-3.09-1.45h-14.22c-1.74,0-3.27,1.12-3.81,2.77l-9.52,29.49h-40.73l9.32-46.61h12.73l-2.41,12.79c-.22,1.17.09,2.38.85,3.29.76.92,1.89,1.45,3.08,1.45h14.22c1.91,0,3.55-1.35,3.92-3.22l9.62-48.36c.07-.3.11-.61.11-.94,0-2.21-1.79-4-4-4h-14.23c-1.92,0-3.57,1.36-3.93,3.25l-2.68,14.02h-13.15l8.81-44.07h36.44l-1.54,27.78c-.06,1.1.33,2.17,1.09,2.97s1.81,1.25,2.91,1.25h13.97c1.91,0,3.56-1.36,3.93-3.24l8.86-45.57c.07-.3.11-.6.11-.92,0-2.21-1.79-4-4-4h0ZM604,8h0,0Z"/>
    </g>
  </g>
  <g>
    <path class="cls-2" d="M198.05,351.86c-.54,0-1.05-.22-1.43-.6L2.57,153.62c-.56-.58-.73-1.43-.42-2.17.31-.74,1.04-1.23,1.84-1.23h597.95c.54,0,1.05.22,1.43.6l194.05,197.63c.56.58.73,1.43.42,2.17-.31.74-1.04,1.23-1.84,1.23H198.05Z"/>
    <path class="cls-3" d="M601.95,152.22l194.05,197.63H198.05L4,152.22h597.95M601.95,148.22H4c-1.61,0-3.07.97-3.69,2.45-.62,1.49-.29,3.2.83,4.35l194.05,197.63c.75.77,1.78,1.2,2.85,1.2h597.95c1.61,0,3.07-.97,3.69-2.45.62-1.49.29-3.2-.83-4.35l-194.05-197.63c-.75-.77-1.78-1.2-2.85-1.2h0Z"/>
  </g>
  <g>
    <g>
      <path class="cls-1" d="M185.71,285.54c-.83,0-1.58-.52-1.87-1.3l-12.72-34.09h-.23l-4.67,24.04h6.56c.59,0,1.16.26,1.54.72.38.46.54,1.06.43,1.64l-1.36,7.35c-.18.95-1,1.64-1.97,1.64h-38.25c-.59,0-1.16-.26-1.54-.72-.38-.46-.54-1.06-.43-1.64l1.36-7.35c.18-.95,1-1.64,1.97-1.64h6.11l11.87-60.52h-5.33c-.59,0-1.16-.26-1.54-.72-.38-.46-.54-1.06-.43-1.64l1.36-7.35c.18-.95,1-1.64,1.97-1.64h37.44c18.38,0,30.72,8.57,30.72,21.33,0,10.97-8.14,19.83-21.92,24.02l12.47,26.52h7.85c.6,0,1.17.27,1.55.73.38.47.53,1.08.41,1.67l-1.5,7.35c-.19.93-1.01,1.6-1.96,1.6h-27.91ZM173.73,239.88c11.02,0,17.6-6.38,17.6-17.06,0-4.27-1.35-9.16-11.88-9.16h-1.35l-5.08,26.22h.71Z"/>
      <path class="cls-3" d="M185.99,204.31c16.47,0,28.72,7.08,28.72,19.33s-9.94,19.47-22.73,22.73l14.02,29.81h9.12l-1.5,7.35h-27.91l-13.2-35.39h-3.27l-5.44,28.04h8.98l-1.36,7.35h-38.25l1.36-7.35h7.76l12.66-64.52h-7.76l1.36-7.35h37.44M170.6,241.88h3.13c10.75,0,19.6-5.99,19.6-19.06,0-8.85-6.53-11.16-13.88-11.16h-3l-5.85,30.22M215.12,276.19h0M185.99,200.31h-37.44c-1.93,0-3.58,1.38-3.93,3.27l-1.36,7.35c-.22,1.17.1,2.37.86,3.29.76.91,1.89,1.44,3.08,1.44h2.9l-11.09,56.52h-4.47c-1.93,0-3.58,1.38-3.93,3.27l-1.36,7.35c-.22,1.17.1,2.37.86,3.29.76.91,1.89,1.44,3.08,1.44h38.25c1.93,0,3.58-1.38,3.93-3.27l1.36-7.35c.22-1.17-.1-2.37-.86-3.29-.76-.91-1.89-1.44-3.08-1.44h-4.13l2.93-15.09,10.39,27.84c.58,1.56,2.08,2.6,3.75,2.6h27.91c1.9,0,3.54-1.34,3.92-3.2l1.47-7.19c.08-.31.11-.63.11-.96,0-2.21-1.79-4-4-4h-6.59l-10.97-23.33c13.33-4.72,21.14-13.91,21.14-25.22,0-13.95-13.15-23.33-32.72-23.33h0ZM175.46,237.82l4.29-22.15c8.41.08,9.58,3.48,9.58,7.16,0,12.11-8.66,14.6-13.87,14.99h0Z"/>
    </g>
    <g>
      <path class="cls-1" d="M216.47,285.54c-.59,0-1.16-.26-1.54-.72-.38-.46-.54-1.06-.43-1.64l1.36-7.35c.18-.95,1-1.64,1.97-1.64h6.11l11.87-60.52h-5.19c-.59,0-1.16-.26-1.54-.72-.38-.46-.54-1.06-.43-1.64l1.36-7.35c.18-.95,1-1.64,1.97-1.64h62.75c.6,0,1.16.27,1.54.73s.53,1.07.42,1.65l-4.77,24.5c-.18.94-1.01,1.62-1.96,1.62h-7.49c-.55,0-1.08-.23-1.45-.63-.38-.4-.57-.94-.54-1.49l.84-15.04h-19.8l-4.78,23.91h7.34l1.46-7.63c.18-.94,1-1.62,1.96-1.62h7.62c.6,0,1.17.27,1.55.73s.53,1.07.42,1.66l-5.17,26c-.19.94-1.01,1.61-1.96,1.61h-7.62c-.6,0-1.16-.27-1.54-.72s-.54-1.06-.43-1.65l1.32-7.02h-7.11l-5.05,25.27h22.1l5.13-15.9c.27-.83,1.04-1.39,1.9-1.39h7.62c.6,0,1.16.27,1.54.73.38.46.53,1.07.42,1.65l-4.77,24.64c-.18.94-1.01,1.62-1.96,1.62h-65.07Z"/>
      <path class="cls-3" d="M294.74,204.31h0M294.74,204.31l-4.77,24.5h-7.49l.95-17.15h-23.55l-5.58,27.91h11.44l1.77-9.26h7.62l-5.17,26h-7.62l1.77-9.39h-11.16l-5.85,29.27h26l5.58-17.29h7.62l-4.77,24.64h-65.07l1.36-7.35h7.76l12.66-64.52h-7.62l1.36-7.35h62.75M275.14,230.31h0M294.75,200.31h-62.76c-1.93,0-3.58,1.38-3.93,3.27l-1.36,7.35c-.22,1.17.1,2.37.86,3.29.76.91,1.89,1.44,3.08,1.44h2.76l-11.09,56.52h-4.47c-1.93,0-3.58,1.38-3.93,3.27l-1.36,7.35c-.22,1.17.1,2.37.86,3.29s1.89,1.44,3.08,1.44h65.07c1.92,0,3.56-1.36,3.93-3.24l4.77-24.64c.23-1.17-.08-2.38-.84-3.31s-1.89-1.45-3.09-1.45h-7.62c-1.74,0-3.27,1.12-3.81,2.77l-4.69,14.52h-18.21l4.25-21.27h3.06l-.88,4.65c-.22,1.17.09,2.38.85,3.29.76.92,1.89,1.45,3.08,1.45h7.62c1.91,0,3.55-1.35,3.92-3.22l5.14-25.84c.03-.11.05-.21.06-.32.14.23.3.44.49.64.76.8,1.81,1.25,2.91,1.25h7.49c1.91,0,3.56-1.36,3.93-3.24l4.73-24.35c.07-.3.11-.6.11-.92,0-2.21-1.79-4-4-4h0ZM294.74,208.31h0,0ZM263.17,215.66h16.04l-.69,12.51c-.71-1.12-1.96-1.86-3.38-1.86h-7.63c-1.92,0-3.57,1.36-3.93,3.25l-1.15,6.01h-3.25l3.98-19.91h0Z"/>
    </g>
    <g>
      <path class="cls-1" d="M320.6,286.9c-7.45,0-14.27-2.44-18.93-6.66l-1.37,3.95c-.28.81-1.04,1.35-1.89,1.35h-6.67c-.6,0-1.16-.27-1.54-.72-.38-.46-.54-1.06-.42-1.65l5.31-27.91c.18-.94,1-1.63,1.96-1.63h6.26c1.04,0,1.9.79,1.99,1.82l.54,6.12c.7,8.41,6.22,13.83,14.07,13.83,6.89,0,11.34-3.92,11.34-9.98,0-3.58-2.33-5.88-6.91-9.12l-10.15-6.63c-8.91-5.89-12.89-12.24-12.89-20.6,0-16.04,13.33-28.14,31-28.14,6.12,0,11.74,1.94,16.12,5.51l1.04-3.06c.28-.81,1.04-1.35,1.89-1.35h6.26c.59,0,1.15.26,1.53.71.38.45.54,1.05.44,1.63l-4.22,24.37c-.17.96-1,1.66-1.97,1.66h-6.13c-1.02,0-1.88-.77-1.99-1.79l-.41-3.95c-.87-7.99-5.42-12.77-12.17-12.77-5.48,0-9.3,3.32-9.3,8.07,0,3.69,2.63,5.85,6.65,8.72l10.55,6.89c9.26,6.23,13.57,12.98,13.57,21.28,0,16.85-14.75,30.04-33.58,30.04Z"/>
      <path class="cls-3" d="M332.31,202.95c7.62,0,13.34,3.13,17.02,7.08l2.04-5.99h6.26l-4.22,24.37h-6.13l-.41-3.95c-.95-8.71-6.13-14.56-14.16-14.56-7.08,0-11.3,4.63-11.3,10.07,0,4.9,3.68,7.62,7.49,10.35l10.62,6.94c7.9,5.31,12.66,11.44,12.66,19.6,0,15.66-13.88,28.04-31.58,28.04-9.53,0-16.34-4.08-19.74-8.44l-2.45,7.08h-6.67l5.31-27.91h6.26l.54,6.13c.82,9.8,7.49,15.66,16.06,15.66,8.03,0,13.34-4.76,13.34-11.98,0-4.63-3.13-7.49-7.76-10.75l-10.21-6.67c-8.03-5.31-11.98-11.03-11.98-18.92,0-14.7,12.12-26.14,29-26.14M357.63,204.04h0M332.31,198.95c-18.81,0-33,12.96-33,30.14,0,8.98,4.38,16.05,13.77,22.26l10.17,6.64c4.55,3.22,6.01,5.03,6.01,7.45,0,5-3.49,7.98-9.34,7.98-6.83,0-11.46-4.59-12.08-11.99l-.55-6.15c-.18-2.06-1.91-3.65-3.98-3.65h-6.26c-1.92,0-3.57,1.37-3.93,3.25l-5.31,27.91c-.22,1.17.09,2.38.85,3.3.76.92,1.89,1.45,3.08,1.45h6.67c1.7,0,3.22-1.08,3.78-2.69l.44-1.28c4.84,3.4,11.17,5.33,17.97,5.33,19.95,0,35.58-14.07,35.58-32.04,0-8.9-4.72-16.39-14.43-22.92-.01,0-.03-.02-.04-.03l-10.55-6.9c-3.58-2.56-5.75-4.32-5.75-7.04,0-3.63,2.93-6.07,7.3-6.07,8.1,0,9.82,7.69,10.18,11l.41,3.93c.21,2.04,1.93,3.59,3.98,3.59h6.13c1.95,0,3.61-1.4,3.94-3.32l4.19-24.21c.06-.27.09-.55.09-.84,0-2.21-1.79-4-4-4h-6.27c-1.71,0-3.23,1.09-3.79,2.71l-.17.5c-4.34-2.8-9.53-4.3-15.1-4.3h0Z"/>
    </g>
    <g>
      <path class="cls-1" d="M392.33,286.9c-19.68,0-32.9-14.04-32.9-34.94,0-25.74,22.9-51.01,46.24-51.01,19.68,0,32.9,14.04,32.9,34.94,0,25.74-22.91,51.01-46.24,51.01ZM405.81,211.9c-9.75,0-20.46,25.6-20.46,48.91,0,4.56.65,15.15,6.71,15.15,9.82,0,20.6-25.6,20.6-48.91,0-4.56-.67-15.15-6.85-15.15Z"/>
      <path class="cls-3" d="M405.67,202.95c19.19,0,30.9,13.75,30.9,32.94,0,24.78-21.92,49.01-44.24,49.01-19.19,0-30.9-13.89-30.9-32.94,0-24.91,21.92-49.01,44.24-49.01M392.06,277.96c11.98,0,22.6-27.77,22.6-50.91,0-10.48-2.86-17.15-8.85-17.15-11.84,0-22.46,27.63-22.46,50.91,0,10.35,2.86,17.15,8.71,17.15M405.67,198.95c-11.79,0-23.98,6.01-33.46,16.48-9.39,10.38-14.78,23.7-14.78,36.53,0,10.53,3.21,19.63,9.29,26.31,6.33,6.96,15.18,10.63,25.61,10.63,11.77,0,23.97-6.03,33.46-16.53,9.39-10.4,14.78-23.69,14.78-36.47,0-22.1-14.03-36.94-34.9-36.94h0ZM392.06,273.96c-3.48,0-4.71-7.09-4.71-13.15,0-23.27,10.74-46.91,18.46-46.91,3.57,0,4.85,6.79,4.85,13.15,0,10.77-2.43,22.95-6.49,32.58-3.68,8.71-8.43,14.33-12.11,14.33h0Z"/>
    </g>
    <g>
      <path class="cls-1" d="M434.25,285.54c-.59,0-1.16-.26-1.54-.72-.38-.46-.54-1.06-.43-1.64l1.36-7.35c.18-.95,1-1.64,1.97-1.64h6.11l11.87-60.52h-5.33c-.59,0-1.16-.26-1.54-.72-.38-.46-.54-1.06-.43-1.64l1.36-7.35c.18-.95,1-1.64,1.97-1.64h37.16c.59,0,1.16.26,1.54.72.38.46.54,1.06.43,1.64l-1.36,7.35c-.18.95-1,1.64-1.97,1.64h-6.25l-11.87,60.52h19.38l5.69-18.07c.26-.83,1.04-1.4,1.91-1.4h7.62c.6,0,1.16.27,1.54.73s.54,1.07.42,1.65l-5.17,26.82c-.18.94-1.01,1.62-1.96,1.62h-62.48Z"/>
      <path class="cls-3" d="M486.8,204.31h0M486.8,204.31l-1.36,7.35h-7.9l-12.66,64.52h23.28l6.13-19.47h7.62l-5.17,26.82h-62.48l1.36-7.35h7.76l12.66-64.52h-7.76l1.36-7.35h37.16M486.8,200.31h-37.17c-1.93,0-3.58,1.38-3.93,3.27l-1.36,7.35c-.22,1.17.1,2.37.86,3.29s1.89,1.44,3.08,1.44h2.9l-11.09,56.52h-4.47c-1.93,0-3.58,1.38-3.93,3.27l-1.36,7.35c-.22,1.17.1,2.37.86,3.29s1.89,1.44,3.08,1.44h62.48c1.92,0,3.56-1.36,3.93-3.24l5.17-26.82c.23-1.17-.08-2.38-.84-3.3-.76-.92-1.89-1.45-3.08-1.45h-7.62c-1.75,0-3.29,1.13-3.82,2.8l-5.24,16.67h-15.48l11.09-56.52h4.6c1.93,0,3.58-1.38,3.93-3.27l1.33-7.19c.06-.28.1-.58.1-.89,0-2.21-1.79-4-4-4h0ZM486.8,208.31h0,0Z"/>
    </g>
    <g>
      <path class="cls-1" d="M537.43,286.9c-18.11,0-29.36-10.36-29.36-27.05,0-2.88.29-5.85.85-8.81l7.42-37.38h-5.59c-.59,0-1.16-.26-1.54-.72-.38-.46-.54-1.06-.43-1.64l1.36-7.35c.18-.95,1-1.64,1.97-1.64h37.3c.59,0,1.16.26,1.54.72.38.46.54,1.06.43,1.64l-1.36,7.35c-.18.95-1,1.64-1.97,1.64h-6.25l-7.31,37.32c-.61,3.15-.92,6.19-.92,9.01,0,11.14,5.77,12.43,10.12,12.43,9.8,0,15.97-7.04,18.87-21.53l7.29-37.22h-8.32c-.59,0-1.16-.26-1.54-.72-.38-.46-.54-1.06-.43-1.64l1.36-7.35c.18-.95,1-1.64,1.97-1.64h27.09c.6,0,1.17.27,1.55.73.38.47.53,1.08.41,1.67l-1.5,7.35c-.19.93-1.01,1.6-1.96,1.6h-6.38l-7.58,39.35c-4.09,21.22-17.96,33.88-37.08,33.88Z"/>
      <path class="cls-3" d="M589.98,204.31l-1.5,7.35h-8.03l-7.9,40.97c-3.68,19.06-15.65,32.26-35.12,32.26-17.29,0-27.36-9.53-27.36-25.05,0-2.72.27-5.58.82-8.44l7.9-39.75h-8.03l1.36-7.35h37.3l-1.36,7.35h-7.9l-7.62,38.93c-.68,3.54-.95,6.67-.95,9.39,0,9.53,3.95,14.43,12.12,14.43,10.21,0,17.56-6.81,20.83-23.14l7.76-39.61h-10.75l1.36-7.35h27.09M549.41,204.31h0M589.98,200.31h-27.09c-1.93,0-3.58,1.38-3.93,3.27l-1.36,7.35c-.22,1.17.1,2.37.86,3.29s1.89,1.44,3.08,1.44h5.89l-6.83,34.84c-3.57,17.85-11.36,19.91-16.9,19.91-4.22,0-8.12-1.26-8.12-10.43,0-2.69.3-5.6.88-8.64l6.99-35.69h4.6c1.93,0,3.58-1.38,3.93-3.27l1.33-7.19c.06-.28.1-.58.1-.89,0-2.21-1.79-4-4-4h-37.3c-1.93,0-3.58,1.38-3.93,3.27l-1.36,7.35c-.22,1.17.1,2.37.86,3.29.76.91,1.89,1.44,3.08,1.44h3.16l-6.95,34.97c-.59,3.12-.89,6.21-.89,9.22,0,17.92,12.02,29.05,31.36,29.05s34.76-13.27,39.05-35.5l7.27-37.73h4.73c1.9,0,3.54-1.34,3.92-3.2l1.5-7.35c.24-1.18-.06-2.4-.82-3.33-.76-.93-1.9-1.47-3.1-1.47h0ZM589.98,208.31h0,0Z"/>
    </g>
    <g>
      <path class="cls-1" d="M594.73,285.54c-.59,0-1.16-.26-1.54-.72-.38-.46-.54-1.06-.43-1.64l1.36-7.35c.18-.95,1-1.64,1.97-1.64h8.97l11.88-60.52h-12.13l-5.3,18.43c-.25.86-1.03,1.45-1.92,1.45h-7.9c-.6,0-1.16-.27-1.54-.73s-.53-1.07-.42-1.65l5.31-27.22c.18-.94,1.01-1.62,1.96-1.62h72.96c.6,0,1.16.27,1.54.72.38.46.54,1.06.42,1.65l-5.17,27.22c-.18.94-1,1.63-1.96,1.63h-7.9c-.56,0-1.1-.24-1.48-.66s-.56-.97-.51-1.54l1.7-17.68h-12.08l-11.88,60.52h8.19c.59,0,1.16.26,1.54.72.38.46.54,1.06.43,1.64l-1.36,7.35c-.18.95-1,1.64-1.97,1.64h-42.74Z"/>
      <path class="cls-3" d="M667.97,204.31h0M667.97,204.31l-5.17,27.22h-7.9l1.91-19.87h-15.93l-12.66,64.52h10.62l-1.36,7.35h-42.74l1.36-7.35h10.62l12.66-64.52h-16.06l-5.72,19.87h-7.9l5.31-27.22h72.96M667.97,200.31h-72.97c-1.91,0-3.56,1.36-3.93,3.23l-5.31,27.22c-.23,1.17.08,2.39.84,3.31s1.89,1.46,3.09,1.46h7.9c1.78,0,3.35-1.18,3.84-2.89l4.89-16.98h8.19l-11.09,56.52h-7.33c-1.93,0-3.58,1.38-3.93,3.27l-1.36,7.35c-.22,1.17.1,2.37.86,3.29.76.91,1.89,1.44,3.08,1.44h42.74c1.93,0,3.58-1.38,3.93-3.27l1.36-7.35c.22-1.17-.1-2.37-.86-3.29-.76-.91-1.89-1.44-3.08-1.44h-5.76l11.09-56.52h8.23l-1.49,15.49c-.11,1.12.26,2.24,1.02,3.07.76.83,1.83,1.31,2.96,1.31h7.9c1.92,0,3.57-1.37,3.93-3.25l5.14-27.07c.07-.29.1-.59.1-.9,0-2.21-1.79-4-4-4h0ZM667.97,208.31h0,0Z"/>
    </g>
    <g>
      <path class="cls-1" d="M693.55,285.54c-.59,0-1.16-.26-1.54-.72-.38-.46-.54-1.06-.43-1.64l1.36-7.35c.18-.95,1-1.64,1.97-1.64h6.66l-1.85-12.2h-20.92l-6.76,12.2h7.09c.59,0,1.16.26,1.54.72.38.46.54,1.06.43,1.64l-1.36,7.35c-.18.95-1,1.64-1.97,1.64h-26.82c-.59,0-1.16-.26-1.54-.72s-.54-1.06-.43-1.64l1.36-7.35c.18-.95,1-1.64,1.97-1.64h6.46l40.54-70.87c.36-.62,1.02-1.01,1.74-1.01h12.39c.96,0,1.79.69,1.97,1.63l13.04,70.24h4.73c.6,0,1.17.27,1.55.73s.53,1.08.41,1.67l-1.5,7.35c-.19.93-1.01,1.6-1.96,1.6h-38.12ZM698.17,251.05l-2.86-18.86-10.48,18.86h13.33Z"/>
      <path class="cls-3" d="M713.43,204.31l13.34,71.87h6.4l-1.5,7.35h-38.12l1.36-7.35h8.98l-2.45-16.2h-23.82l-8.98,16.2h10.48l-1.36,7.35h-26.82l1.36-7.35h7.62l41.11-71.87h12.39M681.44,253.05h19.06l-4.08-26.95-14.97,26.95M733.17,276.19h0M713.43,200.31h-12.39c-1.43,0-2.76.77-3.47,2.01l-39.96,69.86h-5.3c-1.93,0-3.58,1.38-3.93,3.27l-1.36,7.35c-.22,1.17.1,2.37.86,3.29.76.91,1.89,1.44,3.08,1.44h26.82c1.93,0,3.58-1.38,3.93-3.27l1.36-7.35c.22-1.17-.1-2.37-.86-3.29-.76-.91-1.89-1.44-3.08-1.44h-3.69l4.55-8.2h18.03l1.24,8.2h-4.33c-1.93,0-3.58,1.38-3.93,3.27l-1.36,7.35c-.22,1.17.1,2.37.86,3.29.76.91,1.89,1.44,3.08,1.44h38.12c1.9,0,3.54-1.34,3.92-3.2l1.47-7.19c.08-.31.11-.63.11-.96,0-2.21-1.79-4-4-4h-3.08l-12.73-68.6c-.35-1.9-2.01-3.27-3.93-3.27h0ZM688.24,249.05l5.98-10.76,1.63,10.76h-7.61Z"/>
    </g>
  </g>
</svg>