<?xml version="1.0" encoding="UTF-8"?>
<svg id="Layer_1" data-name="Layer 1" xmlns="http://www.w3.org/2000/svg" viewBox="0 0 800.01 401.78">
  <defs>
    <style>
      .cls-1 {
        fill: #ff2a00;
      }
    </style>
  </defs>
  <path d="M0,359.29h.01v-.05.05Z"/>
  <path class="cls-1" d="M53.89,304.69h-1.96l7.47-38.58h1.78c8.71,0,17.25,2.49,17.25,14.04,0,16.54-10.67,24.54-24.54,24.54Z"/>
  <path class="cls-1" d="M361.51,263.62c-14.4,0-27.21,38.58-27.21,67.93,0,12.09,3.03,19.91,9.25,19.91,14.4,0,27.21-38.59,27.21-67.93,0-12.09-3.03-19.91-9.25-19.91ZM361.51,263.62c-14.4,0-27.21,38.58-27.21,67.93,0,12.09,3.03,19.91,9.25,19.91,14.4,0,27.21-38.59,27.21-67.93,0-12.09-3.03-19.91-9.25-19.91ZM361.51,263.62c-14.4,0-27.21,38.58-27.21,67.93,0,12.09,3.03,19.91,9.25,19.91,14.4,0,27.21-38.59,27.21-67.93,0-12.09-3.03-19.91-9.25-19.91ZM361.51,263.62c-14.4,0-27.21,38.58-27.21,67.93,0,12.09,3.03,19.91,9.25,19.91,14.4,0,27.21-38.59,27.21-67.93,0-12.09-3.03-19.91-9.25-19.91ZM.01,207.87v151.37l1.95-10.27h9.25l16.18-82.86h-9.25l1.96-10.32h51.39c22.05,0,38.94,9.43,38.94,25.43,0,14.94-12.8,25.07-29.34,29.52l17.43,38.23h11.56l-1.96,10.32h-40.01l-16-45.88h-1.96l-6.93,35.56h11.2l-1.96,10.32H.01v42.49h800v-193.91H.01ZM170.54,266.11l-7.12,35.56h12.63l2.31-12.09h10.67l-6.76,34.5h-10.67l2.31-12.1h-12.44l-7.29,36.99h31.83l7.46-22.23h10.67l-6.4,32.55h-86.78l1.96-10.32h9.25l16.18-82.86h-9.07l1.96-10.32h83.75l-6.4,32.9h-10.49l1.24-22.58h-28.8ZM291.99,286.73h-8.54l-.71-4.62c-1.42-11.02-7.83-18.32-18.32-18.32-8.71,0-13.69,5.52-13.69,11.56,0,5.69,4.62,9.25,9.25,12.27l14.04,9.07c11.03,7.29,17.61,16.01,17.61,26.85,0,20.99-19.38,37.52-43.03,37.52-12.99,0-22.05-5.15-26.86-10.84l-2.84,9.07h-9.43l7.12-36.28h8.71l.89,8c1.42,11.92,9.6,19.56,20.81,19.56,10.13,0,16.53-6.04,16.53-14.22,0-5.69-4.44-9.07-10.49-13.16l-12.98-8.36c-11.2-7.29-16.18-15.29-16.18-25.78,0-19.39,16.18-35.04,39.47-35.04,9.96,0,17.61,3.92,22.95,9.07l2.31-7.64h8.89l-5.51,31.29ZM343.91,361.06c-26.14,0-42.15-18.13-42.15-43.38,0-33.08,30.05-63.67,59.4-63.67,26.14,0,42.14,18.14,42.14,43.39,0,33.08-30.05,63.66-59.39,63.66ZM482.43,359.29h-83.4l1.95-10.32h9.25l16.18-82.86h-9.24l1.95-10.32h50.68l-1.95,10.32h-9.43l-16.18,82.86h28.27l8.18-25.43h10.67l-6.93,35.75ZM591.97,266.11l-10.32,52.81c-4.8,24.9-20.62,42.14-46.59,42.14-23.29,0-37.16-12.44-37.16-33.43,0-3.37.35-7.11,1.06-10.84l9.96-50.68h-9.6l1.96-10.32h50.85l-1.95,10.32h-9.43l-9.78,49.96c-.89,4.63-1.24,8.54-1.24,12.1,0,12.09,4.98,17.96,14.94,17.96,12.27,0,21.87-8.18,25.96-29.34l9.96-50.68h-13.52l1.96-10.32h33.96l-1.95,10.32h-9.07ZM669.67,348.97l-1.95,10.32h-57.98l1.96-10.32h12.98l16.18-82.86h-19.74l-7.64,26.49h-11.03l7.12-36.81h98.51l-7.11,36.81h-11.03l2.67-26.49h-19.74l-16.18,82.86h12.98ZM791.12,359.29h-52.81l1.96-10.32h11.02l-2.84-17.07h-31.48l-9.78,17.07h13.34l-1.96,10.32h-34.85l1.95-10.32h9.43l54.59-93.18h16.9l19.02,93.18h7.47l-1.96,10.32ZM722.48,322.3h24.37l-5.52-33.08-18.85,33.08ZM361.51,263.62c-14.4,0-27.21,38.58-27.21,67.93,0,12.09,3.03,19.91,9.25,19.91,14.4,0,27.21-38.59,27.21-67.93,0-12.09-3.03-19.91-9.25-19.91ZM361.51,263.62c-14.4,0-27.21,38.58-27.21,67.93,0,12.09,3.03,19.91,9.25,19.91,14.4,0,27.21-38.59,27.21-67.93,0-12.09-3.03-19.91-9.25-19.91ZM361.51,263.62c-14.4,0-27.21,38.58-27.21,67.93,0,12.09,3.03,19.91,9.25,19.91,14.4,0,27.21-38.59,27.21-67.93,0-12.09-3.03-19.91-9.25-19.91ZM361.51,263.62c-14.4,0-27.21,38.58-27.21,67.93,0,12.09,3.03,19.91,9.25,19.91,14.4,0,27.21-38.59,27.21-67.93,0-12.09-3.03-19.91-9.25-19.91ZM361.51,263.62c-14.4,0-27.21,38.58-27.21,67.93,0,12.09,3.03,19.91,9.25,19.91,14.4,0,27.21-38.59,27.21-67.93,0-12.09-3.03-19.91-9.25-19.91Z"/>
  <g>
    <path class="cls-1" d="M72.15,207.86H.01l2.86-15h22.86L129.3,0h27.5l25.71,192.86h21.43l-2.86,15h-82.15l2.86-15h26.79l-7.14-67.5h-61.79l-35,67.5h30.36l-2.86,15ZM87.51,110.72h52.14l-8.93-83.22-43.22,83.22Z"/>
    <path class="cls-1" d="M218.94,207.86l2.86-15h25.71L282.15,15h-25.71l2.86-15h82.5c40,0,67.86,17.5,67.86,49.29s-26.79,53.93-61.07,61.43l40.36,82.15h26.07l-2.86,15h-51.79l-41.79-94.29h-22.86l-15.36,79.29h26.07l-2.86,15h-84.64ZM315.01,15l-16.43,85h20.72c30,0,57.86-15,57.86-51.79,0-24.29-17.14-33.21-41.43-33.21h-20.71Z"/>
    <path class="cls-1" d="M449.65,207.86l2.86-15h33.22l34.64-177.86h-48.93l-14.64,48.57h-15.71L453.22,0h172.86l-12.14,63.57h-15.71l3.93-48.57h-48.93l-34.64,177.86h33.22l-2.86,15h-99.29Z"/>
    <path class="cls-1" d="M605.72,207.86l2.86-15h25.71l34.64-177.86h-25.72l2.86-15h153.93l-11.43,59.29h-15.71l3.21-44.29h-74.29l-15.36,79.29h43.57l4.64-24.29h15.71l-12.5,63.93h-15.71l4.64-24.64h-43.22l-16.43,83.57h80l14.64-46.79h15.72l-12.14,61.79h-159.65Z"/>
  </g>
</svg>